<svg xmlns="http://www.w3.org/2000/svg" viewBox="0 0 70.76 71.06">
    <path d="M8.48,30.23A27.44,27.44,0,0,1,29.7,8.76a23.37,23.37,0,0,1,5.51-5A23,23,0,0,0,3.65,35.63a23,23,0,0,1,4.83-5.4Z" fill="#28a8e0"/>
    <path d="M40.85,8.71A27.45,27.45,0,0,1,62.22,30a23.27,23.27,0,0,1,4.88,5.45A23,23,0,0,0,35.22,3.72,23.33,23.33,0,0,1,40.85,8.71Z" fill="#8cc540"/>
    <path d="M29.71,8.76a27.13,27.13,0,0,1,5.67-.59,28.19,28.19,0,0,1,5.47.54,23.38,23.38,0,0,0-5.64-5,23.2,23.2,0,0,0-5.51,5Z" fill="#089e4a"/>
    <path d="M30,62.47A27.43,27.43,0,0,1,8.51,41.05a22.85,22.85,0,0,1-4.86-5.42A23,23,0,0,0,35.54,67.35,23.28,23.28,0,0,1,30,62.47Z" fill="#fedd10"/>
    <path d="M8.51,41.06A27.53,27.53,0,0,1,8,35.58a27,27,0,0,1,.53-5.35,22.86,22.86,0,0,0-4.84,5.4A22.87,22.87,0,0,0,8.51,41.06Z" fill="#5d9848"/>
    <path d="M67.1,35.43a23.11,23.11,0,0,1-4.81,5.39A27.45,27.45,0,0,1,41,62.43a23.72,23.72,0,0,1-5.42,4.92A23,23,0,0,0,67.09,35.43Z" fill="#f37a3c"/>
    <path d="M62.22,30a27.25,27.25,0,0,1,.07,10.84,23.15,23.15,0,0,0,4.82-5.39A23.31,23.31,0,0,0,62.22,30Z" fill="#946b37"/>
    <path d="M41,62.43a26.92,26.92,0,0,1-5.57.57A27.27,27.27,0,0,1,30,62.47a23.28,23.28,0,0,0,5.54,4.88A23.47,23.47,0,0,0,41,62.43Z" fill="#f68835"/>
    <path d="M24.77,22.55A23,23,0,0,1,29.7,8.75,27.44,27.44,0,0,0,8.49,30.23a22.8,22.8,0,0,1,13.76-5.14,16.75,16.75,0,0,1,2.52-2.53Z" fill="#0d769a"/>
    <path d="M48.36,24.87A23.08,23.08,0,0,1,62.3,30,27.5,27.5,0,0,0,40.85,8.71,22.86,22.86,0,0,1,46,22.55,16.69,16.69,0,0,1,48.36,24.87Z" fill="#58853c"/>
    <path d="M35.38,18.78A16.7,16.7,0,0,1,46,22.55,22.84,22.84,0,0,0,40.85,8.71a27.43,27.43,0,0,0-5.47-.54,27.92,27.92,0,0,0-5.68.58,23,23,0,0,0-4.93,13.8A16.72,16.72,0,0,1,35.38,18.78Z" fill="#056b37"/>
    <path d="M22.34,46.18A22.81,22.81,0,0,1,8.51,41.05,27.45,27.45,0,0,0,30,62.47a22.88,22.88,0,0,1-5.22-13.85,16.55,16.55,0,0,1-2.44-2.44Z" fill="#a99431"/>
    <path d="M18.57,35.58a16.67,16.67,0,0,1,3.69-10.49A22.76,22.76,0,0,0,8.49,30.24,27,27,0,0,0,8,35.59a27.43,27.43,0,0,0,.55,5.47,22.83,22.83,0,0,0,13.83,5.13,16.72,16.72,0,0,1-3.76-10.6Z" fill="#3c6a33"/>
    <path d="M46,48.62a22.83,22.83,0,0,1-5,13.81A27.47,27.47,0,0,0,62.3,40.82,22.86,22.86,0,0,1,48.59,46,16.64,16.64,0,0,1,46,48.61Z" fill="#c15f2d"/>
    <path d="M62.22,30a22.94,22.94,0,0,0-13.89-5.11A16.81,16.81,0,0,1,48.58,46a22.92,22.92,0,0,0,13.71-5.15,27.54,27.54,0,0,0,.51-5.24,27.21,27.21,0,0,0-.58-5.6Z" fill="#63471e"/>
    <path d="M35.38,52.38a16.69,16.69,0,0,1-10.6-3.76A22.88,22.88,0,0,0,30,62.47a27.53,27.53,0,0,0,11,0,22.82,22.82,0,0,0,5-13.81,16.7,16.7,0,0,1-10.6,3.77Z" fill="#a14c25"/>
</svg>
