<svg xmlns="http://www.w3.org/2000/svg" viewBox="0 0 18.89 23.84"><title>alert</title><path d="M17.44,15.34a5.6,5.6,0,0,1-2-4v-3c0-3.75-2.28-8.08-6.33-7.83A6.28,6.28,0,0,0,3.44,6.88v4.46a5.58,5.58,0,0,1-2,4c-1,1-1,2-.91,4a1,1,0,0,0,1,1H17.36a1,1,0,0,0,1-1C18.44,17.38,18.46,16.36,17.44,15.34Z" fill="none" stroke="#163567" stroke-linecap="round" stroke-linejoin="round"/><path d="M9.44,23.34h0a2,2,0,0,1-2-2v-1h4v1A2,2,0,0,1,9.44,23.34Z" fill="none" stroke="#163567" stroke-linecap="round" stroke-linejoin="round"/></svg>