<svg xmlns="http://www.w3.org/2000/svg" viewBox="0 0 24 20"><title>announce</title><path d="M14.5,16.5l-.7,2.09a1,1,0,0,1-1.22.65l-5-1.44a1,1,0,0,1-.66-1.33L7.5,15" fill="none" stroke="#163567" stroke-linejoin="round"/><path d="M21.21.79l-.71.71-17,5h-2a1,1,0,0,0-1,1v5a1,1,0,0,0,1,1h2l17,5,.71.71a1,1,0,0,0,.7.29h.59a1,1,0,0,0,1-1V1.5a1,1,0,0,0-1-1h-.59A1,1,0,0,0,21.21.79Z" fill="none" stroke="#163567" stroke-linecap="round" stroke-linejoin="round"/><line x1="3.5" y1="6.5" x2="3.5" y2="13.5" fill="none" stroke="#163567" stroke-linecap="round" stroke-linejoin="round"/></svg>