<svg xmlns="http://www.w3.org/2000/svg" viewBox="0 0 24 24"><title>barcode</title><path d="M.5,6.25V1.5a1,1,0,0,1,1-1H6.25" fill="none" stroke="#163567" stroke-linecap="round" stroke-linejoin="round"/><path d="M6.25,23.5H1.5a1,1,0,0,1-1-1V17.75" fill="none" stroke="#163567" stroke-linecap="round" stroke-linejoin="round"/><path d="M23.5,17.75V22.5a1,1,0,0,1-1,1H17.75" fill="none" stroke="#163567" stroke-linecap="round" stroke-linejoin="round"/><path d="M17.75.5H22.5a1,1,0,0,1,1,1V6.25" fill="none" stroke="#163567" stroke-linecap="round" stroke-linejoin="round"/><line x1="3.5" y1="4.5" x2="3.5" y2="19.5" fill="none" stroke="#163567" stroke-linecap="round" stroke-linejoin="round"/><line x1="6.5" y1="4.5" x2="6.5" y2="19.5" fill="none" stroke="#163567" stroke-linecap="round" stroke-linejoin="round"/><line x1="10.5" y1="4.5" x2="10.5" y2="19.5" fill="none" stroke="#163567" stroke-linecap="round" stroke-linejoin="round"/><line x1="13.5" y1="4.5" x2="13.5" y2="19.5" fill="none" stroke="#163567" stroke-linecap="round" stroke-linejoin="round"/><line x1="16.5" y1="4.5" x2="16.5" y2="19.5" fill="none" stroke="#163567" stroke-linecap="round" stroke-linejoin="round"/><line x1="20.5" y1="4.5" x2="20.5" y2="19.5" fill="none" stroke="#163567" stroke-linecap="round" stroke-linejoin="round"/></svg>