<svg xmlns="http://www.w3.org/2000/svg" viewBox="0 0 20 24"><title>bin</title><line x1="0.5" y1="3.5" x2="19.5" y2="3.5" fill="none" stroke="#163567" stroke-linecap="round" stroke-linejoin="round"/><path d="M8.31.5h3.38A2.31,2.31,0,0,1,14,2.81V3.5a0,0,0,0,1,0,0H6a0,0,0,0,1,0,0V2.81A2.31,2.31,0,0,1,8.31.5Z" fill="none" stroke="#163567" stroke-linecap="round" stroke-linejoin="round"/><line x1="10" y1="7.5" x2="10" y2="19.5" fill="none" stroke="#163567" stroke-linecap="round" stroke-linejoin="round"/><line x1="6" y1="7.5" x2="6" y2="19.5" fill="none" stroke="#163567" stroke-linecap="round" stroke-linejoin="round"/><line x1="14" y1="7.5" x2="14" y2="19.5" fill="none" stroke="#163567" stroke-linecap="round" stroke-linejoin="round"/><path d="M14.15,23.5H5.85a3,3,0,0,1-3-2.85L2,3.5H18l-.86,17.15A3,3,0,0,1,14.15,23.5Z" fill="none" stroke="#163567" stroke-linecap="round" stroke-linejoin="round"/></svg>