<svg xmlns="http://www.w3.org/2000/svg" viewBox="0 0 24 24"><title>call</title><path d="M10.15,8.33l-.09.11c-.29.34-.15.85,0,1.39A8.73,8.73,0,0,0,14,14.1a1.21,1.21,0,0,0,1.39,0l.11-.09a1.27,1.27,0,0,1,1.29-.34l.94.4a1.41,1.41,0,0,1,.92,1.42,5.65,5.65,0,0,1-.7,1.71,1.36,1.36,0,0,1-1.6.34c-5.62-1.68-8.19-5.12-9.75-9.95A1.39,1.39,0,0,1,6.88,6a3.5,3.5,0,0,1,1.69-.75A1.5,1.5,0,0,1,10,6.12,8.19,8.19,0,0,1,10.4,7,1.35,1.35,0,0,1,10.15,8.33Z" fill="none" stroke="#163567" stroke-miterlimit="10"/><path d="M6.14,21.89.5,23.5l1.61-5.64a11.51,11.51,0,1,1,4,4Z" fill="none" stroke="#163567" stroke-linecap="round" stroke-linejoin="round"/></svg>