<svg xmlns="http://www.w3.org/2000/svg" viewBox="0 0 24 23.93"><title>gift</title><path d="M2.5,11.43h19a0,0,0,0,1,0,0v11a1,1,0,0,1-1,1H3.5a1,1,0,0,1-1-1v-11A0,0,0,0,1,2.5,11.43Z" fill="none" stroke="#163567" stroke-miterlimit="10"/><path d="M1.5,7.43h21a1,1,0,0,1,1,1v3a0,0,0,0,1,0,0H.5a0,0,0,0,1,0,0v-3A1,1,0,0,1,1.5,7.43Z" fill="none" stroke="#163567" stroke-miterlimit="10"/><path d="M10.11,2.11,11.5,7,7,4.71A2.21,2.21,0,0,1,6.4,1.16h0A2.21,2.21,0,0,1,10.11,2.11Z" fill="none" stroke="#163567" stroke-linecap="round" stroke-linejoin="round"/><path d="M13.14,2.11,11.75,7l4.52-2.26a2.21,2.21,0,0,0,.58-3.55h0A2.21,2.21,0,0,0,13.14,2.11Z" fill="none" stroke="#163567" stroke-linecap="round" stroke-linejoin="round"/><line x1="11.5" y1="7.93" x2="11.5" y2="23.43" fill="none" stroke="#163567" stroke-linejoin="round"/></svg>