<svg xmlns="http://www.w3.org/2000/svg" viewBox="0 0 24 23"><title>store</title><path d="M22.5,8.5v13a1,1,0,0,1-1,1H2.5a1,1,0,0,1-1-1V8.5" fill="none" stroke="#163567" stroke-linecap="round" stroke-linejoin="round"/><path d="M.5,6.5,1.65.5h20.7l1.15,6h0a2.17,2.17,0,0,1-2.3,2,2.17,2.17,0,0,1-2.3-2,2.17,2.17,0,0,1-2.3,2,2.17,2.17,0,0,1-2.3-2,2.17,2.17,0,0,1-2.3,2,2.17,2.17,0,0,1-2.3-2,2.17,2.17,0,0,1-2.3,2,2.17,2.17,0,0,1-2.3-2,2.17,2.17,0,0,1-2.3,2,2.17,2.17,0,0,1-2.3-2Z" fill="none" stroke="#163567" stroke-linecap="round" stroke-linejoin="round"/><path d="M9.5,12.5h5a2,2,0,0,1,2,2v8a0,0,0,0,1,0,0h-9a0,0,0,0,1,0,0v-8A2,2,0,0,1,9.5,12.5Z" fill="none" stroke="#163567" stroke-linecap="round" stroke-linejoin="round"/></svg>