<svg xmlns="http://www.w3.org/2000/svg" viewBox="0 0 24 16"><title>truck</title><path d="M6.5,13.5h9V1.5a1,1,0,0,0-1-1H1.5a1,1,0,0,0-1,1v11a1,1,0,0,0,1,1h1" fill="none" stroke="#163567" stroke-linecap="round" stroke-linejoin="round"/><path d="M20.5,13.5h2a1,1,0,0,0,1-1V7.91a1,1,0,0,0-.29-.7L19.79,3.79a1,1,0,0,0-.7-.29H15.5v10h1" fill="none" stroke="#163567" stroke-linecap="round" stroke-linejoin="round"/><circle cx="4.5" cy="13.5" r="2" fill="none" stroke="#163567" stroke-linecap="round" stroke-linejoin="round"/><circle cx="18.5" cy="13.5" r="2" fill="none" stroke="#163567" stroke-linecap="round" stroke-linejoin="round"/></svg>