<svg xmlns="http://www.w3.org/2000/svg" viewBox="0 0 24 20"><title>wallet</title><path d="M22.5,13.5v5a1,1,0,0,1-1,1H2.5" fill="none" stroke="#163567" stroke-linecap="round" stroke-linejoin="round"/><path d="M2.5,4.5h19a1,1,0,0,1,1,1v4" fill="none" stroke="#163567" stroke-linecap="round" stroke-linejoin="round"/><polyline points="0.5 4.5 0.5 5.5 0.5 17.5" fill="none" stroke="#163567" stroke-linecap="round" stroke-linejoin="round"/><path d="M2.5.5a2,2,0,0,0,0,4" fill="none" stroke="#163567" stroke-linecap="round" stroke-linejoin="round"/><line x1="0.5" y1="5.5" x2="0.5" y2="2.5" fill="none" stroke="#163567" stroke-linecap="round" stroke-linejoin="round"/><path d="M19.5,4.5v-3a1,1,0,0,0-1-1H2.5" fill="none" stroke="#163567" stroke-linecap="round" stroke-linejoin="round"/><path d="M.5,17.5a2,2,0,0,0,2,2" fill="none" stroke="#163567" stroke-linecap="round" stroke-linejoin="round"/><path d="M16.5,13.5a2,2,0,0,1,0-4" fill="none" stroke="#163567" stroke-linecap="round" stroke-linejoin="round"/><path d="M16.5,13.5h6a1,1,0,0,0,1-1v-2a1,1,0,0,0-1-1h-6" fill="none" stroke="#163567" stroke-linecap="round" stroke-linejoin="round"/></svg>