<svg xmlns="http://www.w3.org/2000/svg" viewBox="0 0 135.3 36" class="app__header__logo__image" height="40" aria-label="Luma"><circle cx="17" cy="17.9" r="4.4"></circle><path d="M33.1 12.2c0-5.8-4.7-10.4-10.4-10.5-2 0-4 .6-5.7 1.7-1.7-1.1-3.6-1.7-5.7-1.7C5.6 1.7.9 6.4.9 12.2c0 2 .6 4 1.7 5.7C1.5 19.6.9 21.5.9 23.6c0 5.8 4.7 10.5 10.4 10.5 2 0 4-.6 5.7-1.7 4.8 3.1 11.3 1.7 14.4-3.1 2.2-3.4 2.2-7.9 0-11.3 1.1-1.9 1.7-3.8 1.7-5.8zm-1.7 10.7c0 5.2-4.2 9.4-9.4 9.4-1.8 0-3.6-.5-5.1-1.5-4.2 2.8-10 1.5-12.8-2.8-2-3.1-2-7.1 0-10.2-1-1.5-1.5-3.3-1.5-5.1 0-5.2 4.2-9.4 9.4-9.4 1.8 0 3.6.5 5.1 1.5C21.4 2 27.2 3.2 30 7.6c2 3.1 2 7.1 0 10.2.9 1.5 1.4 3.3 1.4 5.1z"></path><path d="M28.7 13.7c0-4.2-3.4-7.6-7.6-7.6-1.5 0-2.9.4-4.1 1.2-3.5-2.2-8.2-1.2-10.5 2.3-1.6 2.5-1.6 5.7 0 8.2-2.2 3.5-1.2 8.2 2.3 10.5 2.5 1.6 5.7 1.6 8.2 0 3.5 2.3 8.2 1.2 10.5-2.3 1.6-2.5 1.6-5.7 0-8.2.8-1.2 1.2-2.6 1.2-4.1zM27 21.4c0 3.6-2.9 6.5-6.5 6.5-1.3 0-2.5-.4-3.5-1-1 .7-2.3 1-3.5 1C9.9 27.9 7 25 7 21.4c0-1.3.4-2.5 1-3.6-.7-1-1.1-2.3-1-3.5 0-3.6 2.9-6.5 6.5-6.5 1.3 0 2.5.4 3.5 1 3-2 7-1.1 9 1.9 1.4 2.2 1.4 4.9 0 7.1.7 1.1 1 2.3 1 3.6z"></path><g><path d="M47.7 28.7h-3.5V6.6h3.5v22.1zM55.2 12.9v10.8c0 1.4.6 2.1 2.1 2.1 1.3 0 3-.7 4.6-1.6V12.9h3.6v15.8h-3l-.3-1.7h-.1c-2.1 1.2-4.1 2-5.8 2-2.9 0-4.6-1.4-4.6-4.6V12.9h3.5zM79.3 28.7V17.8c0-1.4-.7-2.1-2.2-2.1-1.2 0-2.6.6-4.1 1.6v11.3h-3.6V12.9h3.3v1.8h.1c1.7-1.2 3.6-2.1 5.4-2.1 1.9 0 3.4.7 4.1 2.3 2-1.4 3.8-2.3 5.8-2.3 2.6 0 4.5 1.4 4.5 4.7v11.5H89v-11c0-1.4-.6-2.1-2.1-2.1-1 0-2.8.6-4.2 1.6v11.3h-3.4zM105.5 19.1v-1.2c0-1.4-.9-2.4-3.4-2.4-1.4 0-3.6.3-5.2.7v-3c1.9-.4 4.3-.7 6-.7 3.8 0 6.2 1.9 6.2 5.6v10.5h-3l-.3-1.8h-.1c-1.7 1.2-3.5 2-5.2 2-2.7 0-4.9-1.6-4.9-4.9 0-3 2.2-4.9 5.9-4.9h4zm0 2.5H102c-1.9 0-2.8.8-2.8 2.1 0 1.5 1 2.2 2.5 2.2 1.4 0 2.8-.6 3.9-1.4v-2.9z"></path></g></svg>
