<svg xmlns="http://www.w3.org/2000/svg" viewBox="0 0 135.27 35.99"><defs><style>.cls-1{fill:#333;}.cls-2{fill:#231f20;}</style></defs><title>Asset 6</title><g id="Layer_2" data-name="Layer 2"><g id="Layer_1-2" data-name="Layer 1"><path class="cls-1" d="M48.7,8h3.4V24.26H62.28v3.1H48.7ZM67.05,19.15V8h3.41V19c0,3.6,1.85,5.53,4.89,5.53s4.86-1.82,4.86-5.39V8h3.4V19c0,5.78-3.26,8.68-8.32,8.68s-8.24-2.9-8.24-8.51ZM90.72,8h3.63l5.88,9.15L106.12,8h3.62V27.36h-3.4V13.48l-6.11,9.13h-.11l-6.05-9.07V27.36H90.72V8Zm32.88-.14h3.16l8.51,19.49h-3.59l-2-4.67h-9.14l-2,4.67h-3.49L123.6,7.87Zm4.87,11.81-3.35-7.74-3.31,7.74Z"/><circle class="cls-2" cx="18.01" cy="18.05" r="4.88"/><path class="cls-2" d="M36,11.67A11.66,11.66,0,0,0,24.32,0,11.54,11.54,0,0,0,18,1.88,11.55,11.55,0,0,0,11.68,0,11.68,11.68,0,0,0,0,11.68,11.55,11.55,0,0,0,1.88,18,11.54,11.54,0,0,0,0,24.32,11.66,11.66,0,0,0,11.67,36,11.51,11.51,0,0,0,18,34.11,11.65,11.65,0,0,0,34.11,18,11.51,11.51,0,0,0,36,11.67Zm-1.88,12A10.45,10.45,0,0,1,18,32.44,10.44,10.44,0,0,1,3.56,18a10.33,10.33,0,0,1-1.67-5.65A10.45,10.45,0,0,1,12.34,1.89,10.33,10.33,0,0,1,18,3.56,10.44,10.44,0,0,1,32.44,18,10.48,10.48,0,0,1,34.11,23.66Z"/><path class="cls-2" d="M31.05,13.4A8.46,8.46,0,0,0,18,6.3,8.46,8.46,0,0,0,6.3,18,8.46,8.46,0,0,0,18,29.69,8.46,8.46,0,0,0,29.69,18,8.36,8.36,0,0,0,31.05,13.4Zm-1.83,8.54A7.27,7.27,0,0,1,18,28.05a7.18,7.18,0,0,1-3.94,1.17A7.27,7.27,0,0,1,7.94,18a7.16,7.16,0,0,1-1.17-3.94,7.28,7.28,0,0,1,7.28-7.28A7.16,7.16,0,0,1,18,7.94,7.27,7.27,0,0,1,28.05,18,7.24,7.24,0,0,1,29.22,21.94Z"/></g></g></svg>